# xmcd
#
# Track frame offsets: 
#        150
#        15204
#        27441
#        41073
#        63516
#        87201
#        104595
#        121440
#        134568
#        149073
#        160833
#        173592
#        189240
#
# Disc length: 2732 seconds
#
# Revision: 0
# Processed by: cddbd v1.5.2PL0 Copyright (c) Steve Scherf et al.
# Submitted via: ExactAudioCopy v1.0b1
#
DISCID=b10aaa0d
DTITLE=Chris LeDoux - The Ultimate Collection CD2
DYEAR=2006
DGENRE=Country
TTITLE0=Cadillac Cowboy
TTITLE1=The Fever
TTITLE2=County Fair
TTITLE3=Tougher Than The Rest
TTITLE4=Stampede
TTITLE5=The Ride
TTITLE6=Five Dollar Fine
TTITLE7=Cadillac Ranch
TTITLE8=Look At You Girl
TTITLE9=Whatcha Gonna Do With A Cowboy
TTITLE10=Workin' Man's Dollar
TTITLE11=For Your Love
TTITLE12=Ol' Double Diamond Western Skies
EXTD=
EXTT0=
EXTT1=
EXTT2=
EXTT3=
EXTT4=
EXTT5=
EXTT6=
EXTT7=
EXTT8=
EXTT9=
EXTT10=
EXTT11=
EXTT12=
PLAYORDER=
